<mxfile host="app.diagrams.net" modified="2023-05-29T17:37:27.359Z" agent="Mozilla/5.0 (Windows NT 10.0; Win64; x64) AppleWebKit/537.36 (KHTML, like Gecko) Chrome/113.0.0.0 Safari/537.36" etag="ywE-fe0kETicLC9IuNh-" version="21.3.0" type="google" pages="4">
  <diagram id="GqCarj4-Mnz0dQVZ22t8" name="Users">
    <mxGraphModel grid="1" page="1" gridSize="10" guides="1" tooltips="1" connect="1" arrows="0" fold="1" pageScale="1" pageWidth="850" pageHeight="1100" math="0" shadow="0">
      <root>
        <mxCell id="0" />
        <mxCell id="1" parent="0" />
        <mxCell id="6VXTqK_q7Z5x81dh3q4J-34" style="edgeStyle=orthogonalEdgeStyle;curved=1;rounded=0;orthogonalLoop=1;jettySize=auto;html=1;exitX=0.5;exitY=1;exitDx=0;exitDy=0;entryX=0;entryY=0;entryDx=0;entryDy=0;" edge="1" parent="1" source="ci0W5QpyFc1eqp9-e7Zw-1" target="ci0W5QpyFc1eqp9-e7Zw-21">
          <mxGeometry relative="1" as="geometry" />
        </mxCell>
        <mxCell id="6VXTqK_q7Z5x81dh3q4J-35" style="edgeStyle=orthogonalEdgeStyle;curved=1;rounded=0;orthogonalLoop=1;jettySize=auto;html=1;exitX=0.5;exitY=1;exitDx=0;exitDy=0;" edge="1" parent="1" source="ci0W5QpyFc1eqp9-e7Zw-1" target="ci0W5QpyFc1eqp9-e7Zw-19">
          <mxGeometry relative="1" as="geometry" />
        </mxCell>
        <mxCell id="6VXTqK_q7Z5x81dh3q4J-36" style="edgeStyle=orthogonalEdgeStyle;curved=1;rounded=0;orthogonalLoop=1;jettySize=auto;html=1;exitX=0.5;exitY=1;exitDx=0;exitDy=0;entryX=0.264;entryY=0.987;entryDx=0;entryDy=0;entryPerimeter=0;" edge="1" parent="1" source="ci0W5QpyFc1eqp9-e7Zw-1" target="ci0W5QpyFc1eqp9-e7Zw-5">
          <mxGeometry relative="1" as="geometry" />
        </mxCell>
        <mxCell id="6VXTqK_q7Z5x81dh3q4J-38" style="edgeStyle=orthogonalEdgeStyle;curved=1;rounded=0;orthogonalLoop=1;jettySize=auto;html=1;exitX=1;exitY=0.5;exitDx=0;exitDy=0;entryX=0.028;entryY=0.726;entryDx=0;entryDy=0;entryPerimeter=0;" edge="1" parent="1" source="ci0W5QpyFc1eqp9-e7Zw-1" target="ci0W5QpyFc1eqp9-e7Zw-3">
          <mxGeometry relative="1" as="geometry" />
        </mxCell>
        <mxCell id="6VXTqK_q7Z5x81dh3q4J-39" style="edgeStyle=orthogonalEdgeStyle;curved=1;rounded=0;orthogonalLoop=1;jettySize=auto;html=1;exitX=1;exitY=0;exitDx=0;exitDy=0;entryX=0.5;entryY=0;entryDx=0;entryDy=0;" edge="1" parent="1" source="ci0W5QpyFc1eqp9-e7Zw-1" target="ci0W5QpyFc1eqp9-e7Zw-8">
          <mxGeometry relative="1" as="geometry">
            <Array as="points">
              <mxPoint x="150" y="83" />
              <mxPoint x="150" />
              <mxPoint x="425" />
            </Array>
          </mxGeometry>
        </mxCell>
        <mxCell id="ci0W5QpyFc1eqp9-e7Zw-1" value="&lt;font style=&quot;font-size: 19px;&quot;&gt;Alice&lt;/font&gt;" style="ellipse;whiteSpace=wrap;html=1;aspect=fixed;fontSize=19;rounded=0;" vertex="1" parent="1">
          <mxGeometry x="30" y="70" width="90" height="90" as="geometry" />
        </mxCell>
        <mxCell id="6VXTqK_q7Z5x81dh3q4J-37" style="edgeStyle=orthogonalEdgeStyle;curved=1;rounded=0;orthogonalLoop=1;jettySize=auto;html=1;exitX=0.5;exitY=0;exitDx=0;exitDy=0;entryX=0.5;entryY=0;entryDx=0;entryDy=0;" edge="1" parent="1" source="ci0W5QpyFc1eqp9-e7Zw-2" target="ci0W5QpyFc1eqp9-e7Zw-10">
          <mxGeometry relative="1" as="geometry" />
        </mxCell>
        <mxCell id="ci0W5QpyFc1eqp9-e7Zw-2" value="&lt;font style=&quot;font-size: 19px;&quot;&gt;1&lt;/font&gt;" style="ellipse;whiteSpace=wrap;html=1;aspect=fixed;fontSize=19;rounded=0;" vertex="1" parent="1">
          <mxGeometry x="60" y="70" width="30" height="30" as="geometry" />
        </mxCell>
        <mxCell id="6VXTqK_q7Z5x81dh3q4J-40" style="edgeStyle=orthogonalEdgeStyle;curved=1;rounded=0;orthogonalLoop=1;jettySize=auto;html=1;exitX=0.5;exitY=1;exitDx=0;exitDy=0;entryX=0;entryY=0;entryDx=0;entryDy=0;" edge="1" parent="1" source="ci0W5QpyFc1eqp9-e7Zw-3" target="ci0W5QpyFc1eqp9-e7Zw-22">
          <mxGeometry relative="1" as="geometry" />
        </mxCell>
        <mxCell id="6VXTqK_q7Z5x81dh3q4J-42" style="edgeStyle=orthogonalEdgeStyle;curved=1;rounded=0;orthogonalLoop=1;jettySize=auto;html=1;exitX=1;exitY=0.5;exitDx=0;exitDy=0;entryX=0;entryY=0;entryDx=0;entryDy=0;" edge="1" parent="1" source="ci0W5QpyFc1eqp9-e7Zw-3" target="ci0W5QpyFc1eqp9-e7Zw-5">
          <mxGeometry relative="1" as="geometry" />
        </mxCell>
        <mxCell id="6VXTqK_q7Z5x81dh3q4J-43" style="edgeStyle=orthogonalEdgeStyle;curved=1;rounded=0;orthogonalLoop=1;jettySize=auto;html=1;exitX=0;exitY=0;exitDx=0;exitDy=0;entryX=1;entryY=0;entryDx=0;entryDy=0;" edge="1" parent="1" source="ci0W5QpyFc1eqp9-e7Zw-3" target="ci0W5QpyFc1eqp9-e7Zw-2">
          <mxGeometry relative="1" as="geometry" />
        </mxCell>
        <mxCell id="6VXTqK_q7Z5x81dh3q4J-44" style="edgeStyle=orthogonalEdgeStyle;curved=1;rounded=0;orthogonalLoop=1;jettySize=auto;html=1;exitX=1;exitY=0;exitDx=0;exitDy=0;entryX=0.5;entryY=0;entryDx=0;entryDy=0;" edge="1" parent="1" source="ci0W5QpyFc1eqp9-e7Zw-3" target="ci0W5QpyFc1eqp9-e7Zw-13">
          <mxGeometry relative="1" as="geometry" />
        </mxCell>
        <mxCell id="6VXTqK_q7Z5x81dh3q4J-45" style="edgeStyle=orthogonalEdgeStyle;curved=1;rounded=0;orthogonalLoop=1;jettySize=auto;html=1;exitX=1;exitY=0.5;exitDx=0;exitDy=0;" edge="1" parent="1" source="ci0W5QpyFc1eqp9-e7Zw-3" target="ci0W5QpyFc1eqp9-e7Zw-11">
          <mxGeometry relative="1" as="geometry" />
        </mxCell>
        <mxCell id="6VXTqK_q7Z5x81dh3q4J-46" style="edgeStyle=orthogonalEdgeStyle;curved=1;rounded=0;orthogonalLoop=1;jettySize=auto;html=1;exitX=1;exitY=0;exitDx=0;exitDy=0;entryX=0;entryY=0;entryDx=0;entryDy=0;" edge="1" parent="1" source="ci0W5QpyFc1eqp9-e7Zw-3" target="ci0W5QpyFc1eqp9-e7Zw-7">
          <mxGeometry relative="1" as="geometry" />
        </mxCell>
        <mxCell id="6VXTqK_q7Z5x81dh3q4J-47" style="edgeStyle=orthogonalEdgeStyle;curved=1;rounded=0;orthogonalLoop=1;jettySize=auto;html=1;exitX=1;exitY=0.5;exitDx=0;exitDy=0;entryX=0;entryY=0.5;entryDx=0;entryDy=0;" edge="1" parent="1" source="ci0W5QpyFc1eqp9-e7Zw-3" target="ci0W5QpyFc1eqp9-e7Zw-9">
          <mxGeometry relative="1" as="geometry" />
        </mxCell>
        <mxCell id="ci0W5QpyFc1eqp9-e7Zw-3" value="Bob" style="ellipse;whiteSpace=wrap;html=1;aspect=fixed;fontSize=19;rounded=0;" vertex="1" parent="1">
          <mxGeometry x="160" y="20" width="90" height="90" as="geometry" />
        </mxCell>
        <mxCell id="ci0W5QpyFc1eqp9-e7Zw-4" value="2" style="ellipse;whiteSpace=wrap;html=1;aspect=fixed;fontSize=19;rounded=0;" vertex="1" parent="1">
          <mxGeometry x="190" y="20" width="30" height="30" as="geometry" />
        </mxCell>
        <mxCell id="6VXTqK_q7Z5x81dh3q4J-9" style="edgeStyle=orthogonalEdgeStyle;curved=1;rounded=0;orthogonalLoop=1;jettySize=auto;html=1;exitX=0.5;exitY=1;exitDx=0;exitDy=0;entryX=0.5;entryY=0;entryDx=0;entryDy=0;" edge="1" parent="1" source="ci0W5QpyFc1eqp9-e7Zw-5" target="ci0W5QpyFc1eqp9-e7Zw-22">
          <mxGeometry relative="1" as="geometry" />
        </mxCell>
        <mxCell id="6VXTqK_q7Z5x81dh3q4J-10" style="edgeStyle=orthogonalEdgeStyle;curved=1;rounded=0;orthogonalLoop=1;jettySize=auto;html=1;exitX=0.5;exitY=1;exitDx=0;exitDy=0;entryX=0.5;entryY=0;entryDx=0;entryDy=0;" edge="1" parent="1" source="ci0W5QpyFc1eqp9-e7Zw-5" target="ci0W5QpyFc1eqp9-e7Zw-20">
          <mxGeometry relative="1" as="geometry" />
        </mxCell>
        <mxCell id="6VXTqK_q7Z5x81dh3q4J-11" style="edgeStyle=orthogonalEdgeStyle;curved=1;rounded=0;orthogonalLoop=1;jettySize=auto;html=1;exitX=0.5;exitY=1;exitDx=0;exitDy=0;entryX=1;entryY=0.5;entryDx=0;entryDy=0;" edge="1" parent="1" source="ci0W5QpyFc1eqp9-e7Zw-5" target="ci0W5QpyFc1eqp9-e7Zw-1">
          <mxGeometry relative="1" as="geometry" />
        </mxCell>
        <mxCell id="6VXTqK_q7Z5x81dh3q4J-12" style="edgeStyle=orthogonalEdgeStyle;curved=1;rounded=0;orthogonalLoop=1;jettySize=auto;html=1;exitX=0.5;exitY=1;exitDx=0;exitDy=0;entryX=0.5;entryY=1;entryDx=0;entryDy=0;" edge="1" parent="1" source="ci0W5QpyFc1eqp9-e7Zw-5" target="ci0W5QpyFc1eqp9-e7Zw-9">
          <mxGeometry relative="1" as="geometry" />
        </mxCell>
        <mxCell id="6VXTqK_q7Z5x81dh3q4J-13" style="edgeStyle=orthogonalEdgeStyle;curved=1;rounded=0;orthogonalLoop=1;jettySize=auto;html=1;exitX=0.5;exitY=1;exitDx=0;exitDy=0;entryX=0.5;entryY=1;entryDx=0;entryDy=0;" edge="1" parent="1" source="ci0W5QpyFc1eqp9-e7Zw-5" target="ci0W5QpyFc1eqp9-e7Zw-3">
          <mxGeometry relative="1" as="geometry" />
        </mxCell>
        <mxCell id="6VXTqK_q7Z5x81dh3q4J-14" style="edgeStyle=orthogonalEdgeStyle;curved=1;rounded=0;orthogonalLoop=1;jettySize=auto;html=1;exitX=0.5;exitY=1;exitDx=0;exitDy=0;" edge="1" parent="1" source="ci0W5QpyFc1eqp9-e7Zw-5" target="ci0W5QpyFc1eqp9-e7Zw-7">
          <mxGeometry relative="1" as="geometry" />
        </mxCell>
        <mxCell id="6VXTqK_q7Z5x81dh3q4J-15" style="edgeStyle=orthogonalEdgeStyle;curved=1;rounded=0;orthogonalLoop=1;jettySize=auto;html=1;exitX=0.5;exitY=1;exitDx=0;exitDy=0;entryX=0.5;entryY=1;entryDx=0;entryDy=0;" edge="1" parent="1" source="ci0W5QpyFc1eqp9-e7Zw-5" target="ci0W5QpyFc1eqp9-e7Zw-11">
          <mxGeometry relative="1" as="geometry" />
        </mxCell>
        <mxCell id="6VXTqK_q7Z5x81dh3q4J-16" style="edgeStyle=orthogonalEdgeStyle;curved=1;rounded=0;orthogonalLoop=1;jettySize=auto;html=1;exitX=0.5;exitY=1;exitDx=0;exitDy=0;entryX=0.5;entryY=1;entryDx=0;entryDy=0;" edge="1" parent="1" source="ci0W5QpyFc1eqp9-e7Zw-5" target="ci0W5QpyFc1eqp9-e7Zw-13">
          <mxGeometry relative="1" as="geometry" />
        </mxCell>
        <mxCell id="6VXTqK_q7Z5x81dh3q4J-17" style="edgeStyle=orthogonalEdgeStyle;curved=1;rounded=0;orthogonalLoop=1;jettySize=auto;html=1;exitX=0.5;exitY=1;exitDx=0;exitDy=0;" edge="1" parent="1" source="ci0W5QpyFc1eqp9-e7Zw-5" target="ci0W5QpyFc1eqp9-e7Zw-16">
          <mxGeometry relative="1" as="geometry" />
        </mxCell>
        <mxCell id="6VXTqK_q7Z5x81dh3q4J-23" style="edgeStyle=orthogonalEdgeStyle;curved=1;rounded=0;orthogonalLoop=1;jettySize=auto;html=1;exitX=0.5;exitY=1;exitDx=0;exitDy=0;" edge="1" parent="1" source="ci0W5QpyFc1eqp9-e7Zw-5" target="ci0W5QpyFc1eqp9-e7Zw-21">
          <mxGeometry relative="1" as="geometry" />
        </mxCell>
        <mxCell id="6VXTqK_q7Z5x81dh3q4J-25" style="edgeStyle=orthogonalEdgeStyle;curved=1;rounded=0;orthogonalLoop=1;jettySize=auto;html=1;exitX=0.5;exitY=1;exitDx=0;exitDy=0;" edge="1" parent="1" source="ci0W5QpyFc1eqp9-e7Zw-5" target="ci0W5QpyFc1eqp9-e7Zw-20">
          <mxGeometry relative="1" as="geometry" />
        </mxCell>
        <mxCell id="6VXTqK_q7Z5x81dh3q4J-26" style="edgeStyle=orthogonalEdgeStyle;curved=1;rounded=0;orthogonalLoop=1;jettySize=auto;html=1;exitX=0;exitY=0.5;exitDx=0;exitDy=0;entryX=0.5;entryY=0;entryDx=0;entryDy=0;" edge="1" parent="1" source="ci0W5QpyFc1eqp9-e7Zw-5" target="ci0W5QpyFc1eqp9-e7Zw-18">
          <mxGeometry relative="1" as="geometry" />
        </mxCell>
        <mxCell id="6VXTqK_q7Z5x81dh3q4J-27" style="edgeStyle=orthogonalEdgeStyle;curved=1;rounded=0;orthogonalLoop=1;jettySize=auto;html=1;exitX=0;exitY=1;exitDx=0;exitDy=0;entryX=0.5;entryY=0;entryDx=0;entryDy=0;" edge="1" parent="1" source="ci0W5QpyFc1eqp9-e7Zw-5" target="ci0W5QpyFc1eqp9-e7Zw-16">
          <mxGeometry relative="1" as="geometry" />
        </mxCell>
        <mxCell id="6VXTqK_q7Z5x81dh3q4J-29" style="edgeStyle=orthogonalEdgeStyle;curved=1;rounded=0;orthogonalLoop=1;jettySize=auto;html=1;exitX=0;exitY=1;exitDx=0;exitDy=0;entryX=1;entryY=1;entryDx=0;entryDy=0;" edge="1" parent="1" source="ci0W5QpyFc1eqp9-e7Zw-5" target="ci0W5QpyFc1eqp9-e7Zw-1">
          <mxGeometry relative="1" as="geometry" />
        </mxCell>
        <mxCell id="6VXTqK_q7Z5x81dh3q4J-30" style="edgeStyle=orthogonalEdgeStyle;curved=1;rounded=0;orthogonalLoop=1;jettySize=auto;html=1;exitX=1;exitY=1;exitDx=0;exitDy=0;entryX=0;entryY=1;entryDx=0;entryDy=0;" edge="1" parent="1" source="ci0W5QpyFc1eqp9-e7Zw-5" target="ci0W5QpyFc1eqp9-e7Zw-7">
          <mxGeometry relative="1" as="geometry" />
        </mxCell>
        <mxCell id="6VXTqK_q7Z5x81dh3q4J-31" style="edgeStyle=orthogonalEdgeStyle;curved=1;rounded=0;orthogonalLoop=1;jettySize=auto;html=1;exitX=0.5;exitY=1;exitDx=0;exitDy=0;entryX=0.222;entryY=1;entryDx=0;entryDy=0;entryPerimeter=0;" edge="1" parent="1" source="ci0W5QpyFc1eqp9-e7Zw-5" target="ci0W5QpyFc1eqp9-e7Zw-9">
          <mxGeometry relative="1" as="geometry" />
        </mxCell>
        <mxCell id="6VXTqK_q7Z5x81dh3q4J-32" style="edgeStyle=orthogonalEdgeStyle;curved=1;rounded=0;orthogonalLoop=1;jettySize=auto;html=1;exitX=1;exitY=1;exitDx=0;exitDy=0;entryX=0;entryY=1;entryDx=0;entryDy=0;" edge="1" parent="1" source="ci0W5QpyFc1eqp9-e7Zw-5" target="ci0W5QpyFc1eqp9-e7Zw-11">
          <mxGeometry relative="1" as="geometry" />
        </mxCell>
        <mxCell id="6VXTqK_q7Z5x81dh3q4J-33" style="edgeStyle=orthogonalEdgeStyle;curved=1;rounded=0;orthogonalLoop=1;jettySize=auto;html=1;exitX=1;exitY=1;exitDx=0;exitDy=0;entryX=0;entryY=1;entryDx=0;entryDy=0;" edge="1" parent="1" source="ci0W5QpyFc1eqp9-e7Zw-5" target="ci0W5QpyFc1eqp9-e7Zw-13">
          <mxGeometry relative="1" as="geometry" />
        </mxCell>
        <mxCell id="ci0W5QpyFc1eqp9-e7Zw-5" value="Charlie" style="ellipse;whiteSpace=wrap;html=1;aspect=fixed;fontSize=19;rounded=0;" vertex="1" parent="1">
          <mxGeometry x="260" y="-120" width="90" height="90" as="geometry" />
        </mxCell>
        <mxCell id="ci0W5QpyFc1eqp9-e7Zw-6" value="3" style="ellipse;whiteSpace=wrap;html=1;aspect=fixed;fontSize=19;rounded=0;" vertex="1" parent="1">
          <mxGeometry x="290" y="-120" width="30" height="30" as="geometry" />
        </mxCell>
        <mxCell id="6VXTqK_q7Z5x81dh3q4J-55" style="edgeStyle=orthogonalEdgeStyle;curved=1;rounded=0;orthogonalLoop=1;jettySize=auto;html=1;exitX=0.5;exitY=1;exitDx=0;exitDy=0;" edge="1" parent="1" source="ci0W5QpyFc1eqp9-e7Zw-7" target="ci0W5QpyFc1eqp9-e7Zw-15">
          <mxGeometry relative="1" as="geometry" />
        </mxCell>
        <mxCell id="6VXTqK_q7Z5x81dh3q4J-56" style="edgeStyle=orthogonalEdgeStyle;curved=1;rounded=0;orthogonalLoop=1;jettySize=auto;html=1;exitX=0;exitY=1;exitDx=0;exitDy=0;" edge="1" parent="1" source="ci0W5QpyFc1eqp9-e7Zw-7" target="ci0W5QpyFc1eqp9-e7Zw-5">
          <mxGeometry relative="1" as="geometry" />
        </mxCell>
        <mxCell id="6VXTqK_q7Z5x81dh3q4J-57" style="edgeStyle=orthogonalEdgeStyle;curved=1;rounded=0;orthogonalLoop=1;jettySize=auto;html=1;exitX=1;exitY=0;exitDx=0;exitDy=0;" edge="1" parent="1" source="ci0W5QpyFc1eqp9-e7Zw-7" target="ci0W5QpyFc1eqp9-e7Zw-9">
          <mxGeometry relative="1" as="geometry" />
        </mxCell>
        <mxCell id="6VXTqK_q7Z5x81dh3q4J-69" style="edgeStyle=orthogonalEdgeStyle;curved=1;rounded=0;orthogonalLoop=1;jettySize=auto;html=1;exitX=0;exitY=0.5;exitDx=0;exitDy=0;" edge="1" parent="1" source="ci0W5QpyFc1eqp9-e7Zw-7" target="ci0W5QpyFc1eqp9-e7Zw-1">
          <mxGeometry relative="1" as="geometry" />
        </mxCell>
        <mxCell id="6VXTqK_q7Z5x81dh3q4J-71" style="edgeStyle=orthogonalEdgeStyle;curved=1;rounded=0;orthogonalLoop=1;jettySize=auto;html=1;exitX=0;exitY=1;exitDx=0;exitDy=0;entryX=1;entryY=0.5;entryDx=0;entryDy=0;" edge="1" parent="1" source="ci0W5QpyFc1eqp9-e7Zw-7" target="ci0W5QpyFc1eqp9-e7Zw-3">
          <mxGeometry relative="1" as="geometry" />
        </mxCell>
        <mxCell id="6VXTqK_q7Z5x81dh3q4J-72" style="edgeStyle=orthogonalEdgeStyle;curved=1;rounded=0;orthogonalLoop=1;jettySize=auto;html=1;exitX=0;exitY=0;exitDx=0;exitDy=0;entryX=1;entryY=1;entryDx=0;entryDy=0;" edge="1" parent="1" source="ci0W5QpyFc1eqp9-e7Zw-7" target="ci0W5QpyFc1eqp9-e7Zw-5">
          <mxGeometry relative="1" as="geometry" />
        </mxCell>
        <mxCell id="6VXTqK_q7Z5x81dh3q4J-74" style="edgeStyle=orthogonalEdgeStyle;curved=1;rounded=0;orthogonalLoop=1;jettySize=auto;html=1;exitX=1;exitY=0.5;exitDx=0;exitDy=0;" edge="1" parent="1" source="ci0W5QpyFc1eqp9-e7Zw-7">
          <mxGeometry relative="1" as="geometry">
            <mxPoint x="690" y="-40" as="targetPoint" />
          </mxGeometry>
        </mxCell>
        <mxCell id="6VXTqK_q7Z5x81dh3q4J-75" style="edgeStyle=orthogonalEdgeStyle;curved=1;rounded=0;orthogonalLoop=1;jettySize=auto;html=1;exitX=1;exitY=1;exitDx=0;exitDy=0;entryX=0;entryY=0.5;entryDx=0;entryDy=0;" edge="1" parent="1" source="ci0W5QpyFc1eqp9-e7Zw-7" target="ci0W5QpyFc1eqp9-e7Zw-13">
          <mxGeometry relative="1" as="geometry" />
        </mxCell>
        <mxCell id="6VXTqK_q7Z5x81dh3q4J-78" style="edgeStyle=orthogonalEdgeStyle;curved=1;rounded=0;orthogonalLoop=1;jettySize=auto;html=1;exitX=0;exitY=1;exitDx=0;exitDy=0;" edge="1" parent="1" source="ci0W5QpyFc1eqp9-e7Zw-7" target="ci0W5QpyFc1eqp9-e7Zw-17">
          <mxGeometry relative="1" as="geometry" />
        </mxCell>
        <mxCell id="6VXTqK_q7Z5x81dh3q4J-79" style="edgeStyle=orthogonalEdgeStyle;curved=1;rounded=0;orthogonalLoop=1;jettySize=auto;html=1;exitX=0;exitY=1;exitDx=0;exitDy=0;entryX=0.5;entryY=0;entryDx=0;entryDy=0;" edge="1" parent="1" source="ci0W5QpyFc1eqp9-e7Zw-7" target="ci0W5QpyFc1eqp9-e7Zw-19">
          <mxGeometry relative="1" as="geometry" />
        </mxCell>
        <mxCell id="ci0W5QpyFc1eqp9-e7Zw-7" value="Dave" style="ellipse;whiteSpace=wrap;html=1;aspect=fixed;fontSize=19;rounded=0;" vertex="1" parent="1">
          <mxGeometry x="380" y="20" width="90" height="90" as="geometry" />
        </mxCell>
        <mxCell id="6VXTqK_q7Z5x81dh3q4J-73" style="edgeStyle=orthogonalEdgeStyle;curved=1;rounded=0;orthogonalLoop=1;jettySize=auto;html=1;exitX=0.5;exitY=0;exitDx=0;exitDy=0;entryX=0;entryY=0.5;entryDx=0;entryDy=0;" edge="1" parent="1" source="ci0W5QpyFc1eqp9-e7Zw-8" target="ci0W5QpyFc1eqp9-e7Zw-9">
          <mxGeometry relative="1" as="geometry" />
        </mxCell>
        <mxCell id="ci0W5QpyFc1eqp9-e7Zw-8" value="4" style="ellipse;whiteSpace=wrap;html=1;aspect=fixed;fontSize=19;rounded=0;" vertex="1" parent="1">
          <mxGeometry x="410" y="20" width="30" height="30" as="geometry" />
        </mxCell>
        <mxCell id="6VXTqK_q7Z5x81dh3q4J-22" style="edgeStyle=orthogonalEdgeStyle;curved=1;rounded=0;orthogonalLoop=1;jettySize=auto;html=1;exitX=0.5;exitY=1;exitDx=0;exitDy=0;" edge="1" parent="1" source="ci0W5QpyFc1eqp9-e7Zw-9" target="ci0W5QpyFc1eqp9-e7Zw-5">
          <mxGeometry relative="1" as="geometry" />
        </mxCell>
        <mxCell id="ci0W5QpyFc1eqp9-e7Zw-9" value="Eve" style="ellipse;whiteSpace=wrap;html=1;aspect=fixed;fontSize=19;rounded=0;" vertex="1" parent="1">
          <mxGeometry x="525" y="-110" width="90" height="90" as="geometry" />
        </mxCell>
        <mxCell id="ci0W5QpyFc1eqp9-e7Zw-10" value="5" style="ellipse;whiteSpace=wrap;html=1;aspect=fixed;fontSize=19;rounded=0;" vertex="1" parent="1">
          <mxGeometry x="555" y="-110" width="30" height="30" as="geometry" />
        </mxCell>
        <mxCell id="6VXTqK_q7Z5x81dh3q4J-58" style="edgeStyle=orthogonalEdgeStyle;curved=1;rounded=0;orthogonalLoop=1;jettySize=auto;html=1;exitX=0;exitY=0.5;exitDx=0;exitDy=0;" edge="1" parent="1" source="ci0W5QpyFc1eqp9-e7Zw-11" target="ci0W5QpyFc1eqp9-e7Zw-15">
          <mxGeometry relative="1" as="geometry" />
        </mxCell>
        <mxCell id="6VXTqK_q7Z5x81dh3q4J-59" style="edgeStyle=orthogonalEdgeStyle;curved=1;rounded=0;orthogonalLoop=1;jettySize=auto;html=1;exitX=0;exitY=1;exitDx=0;exitDy=0;" edge="1" parent="1" source="ci0W5QpyFc1eqp9-e7Zw-11" target="ci0W5QpyFc1eqp9-e7Zw-5">
          <mxGeometry relative="1" as="geometry" />
        </mxCell>
        <mxCell id="6VXTqK_q7Z5x81dh3q4J-60" style="edgeStyle=orthogonalEdgeStyle;curved=1;rounded=0;orthogonalLoop=1;jettySize=auto;html=1;exitX=0;exitY=0;exitDx=0;exitDy=0;" edge="1" parent="1" source="ci0W5QpyFc1eqp9-e7Zw-11" target="ci0W5QpyFc1eqp9-e7Zw-9">
          <mxGeometry relative="1" as="geometry" />
        </mxCell>
        <mxCell id="6VXTqK_q7Z5x81dh3q4J-61" style="edgeStyle=orthogonalEdgeStyle;curved=1;rounded=0;orthogonalLoop=1;jettySize=auto;html=1;exitX=0;exitY=0.5;exitDx=0;exitDy=0;" edge="1" parent="1" source="ci0W5QpyFc1eqp9-e7Zw-11" target="ci0W5QpyFc1eqp9-e7Zw-3">
          <mxGeometry relative="1" as="geometry" />
        </mxCell>
        <mxCell id="6VXTqK_q7Z5x81dh3q4J-62" style="edgeStyle=orthogonalEdgeStyle;curved=1;rounded=0;orthogonalLoop=1;jettySize=auto;html=1;exitX=0;exitY=1;exitDx=0;exitDy=0;entryX=1;entryY=0;entryDx=0;entryDy=0;" edge="1" parent="1" source="ci0W5QpyFc1eqp9-e7Zw-11" target="ci0W5QpyFc1eqp9-e7Zw-7">
          <mxGeometry relative="1" as="geometry" />
        </mxCell>
        <mxCell id="6VXTqK_q7Z5x81dh3q4J-63" style="edgeStyle=orthogonalEdgeStyle;curved=1;rounded=0;orthogonalLoop=1;jettySize=auto;html=1;exitX=0;exitY=1;exitDx=0;exitDy=0;" edge="1" parent="1" source="ci0W5QpyFc1eqp9-e7Zw-11" target="ci0W5QpyFc1eqp9-e7Zw-17">
          <mxGeometry relative="1" as="geometry" />
        </mxCell>
        <mxCell id="ci0W5QpyFc1eqp9-e7Zw-11" value="Frank" style="ellipse;whiteSpace=wrap;html=1;aspect=fixed;fontSize=19;rounded=0;" vertex="1" parent="1">
          <mxGeometry x="690" y="-80" width="90" height="90" as="geometry" />
        </mxCell>
        <mxCell id="ci0W5QpyFc1eqp9-e7Zw-12" value="6" style="ellipse;whiteSpace=wrap;html=1;aspect=fixed;fontSize=19;rounded=0;" vertex="1" parent="1">
          <mxGeometry x="720" y="-80" width="30" height="30" as="geometry" />
        </mxCell>
        <mxCell id="6VXTqK_q7Z5x81dh3q4J-48" style="edgeStyle=orthogonalEdgeStyle;curved=1;rounded=0;orthogonalLoop=1;jettySize=auto;html=1;exitX=0;exitY=0.5;exitDx=0;exitDy=0;" edge="1" parent="1" source="ci0W5QpyFc1eqp9-e7Zw-13" target="ci0W5QpyFc1eqp9-e7Zw-15">
          <mxGeometry relative="1" as="geometry" />
        </mxCell>
        <mxCell id="6VXTqK_q7Z5x81dh3q4J-49" style="edgeStyle=orthogonalEdgeStyle;curved=1;rounded=0;orthogonalLoop=1;jettySize=auto;html=1;exitX=0;exitY=0.5;exitDx=0;exitDy=0;entryX=1;entryY=0.5;entryDx=0;entryDy=0;" edge="1" parent="1" source="ci0W5QpyFc1eqp9-e7Zw-13" target="ci0W5QpyFc1eqp9-e7Zw-5">
          <mxGeometry relative="1" as="geometry" />
        </mxCell>
        <mxCell id="6VXTqK_q7Z5x81dh3q4J-50" style="edgeStyle=orthogonalEdgeStyle;curved=1;rounded=0;orthogonalLoop=1;jettySize=auto;html=1;exitX=0;exitY=0;exitDx=0;exitDy=0;" edge="1" parent="1" source="ci0W5QpyFc1eqp9-e7Zw-13" target="ci0W5QpyFc1eqp9-e7Zw-9">
          <mxGeometry relative="1" as="geometry" />
        </mxCell>
        <mxCell id="6VXTqK_q7Z5x81dh3q4J-53" style="edgeStyle=orthogonalEdgeStyle;curved=1;rounded=0;orthogonalLoop=1;jettySize=auto;html=1;exitX=1;exitY=1;exitDx=0;exitDy=0;" edge="1" parent="1" source="ci0W5QpyFc1eqp9-e7Zw-13" target="ci0W5QpyFc1eqp9-e7Zw-9">
          <mxGeometry relative="1" as="geometry" />
        </mxCell>
        <mxCell id="6VXTqK_q7Z5x81dh3q4J-54" style="edgeStyle=orthogonalEdgeStyle;curved=1;rounded=0;orthogonalLoop=1;jettySize=auto;html=1;exitX=0;exitY=1;exitDx=0;exitDy=0;" edge="1" parent="1" source="ci0W5QpyFc1eqp9-e7Zw-13" target="ci0W5QpyFc1eqp9-e7Zw-17">
          <mxGeometry relative="1" as="geometry" />
        </mxCell>
        <mxCell id="ci0W5QpyFc1eqp9-e7Zw-13" value="Grace" style="ellipse;whiteSpace=wrap;html=1;aspect=fixed;fontSize=19;rounded=0;" vertex="1" parent="1">
          <mxGeometry x="720" y="70" width="90" height="90" as="geometry" />
        </mxCell>
        <mxCell id="6VXTqK_q7Z5x81dh3q4J-51" style="edgeStyle=orthogonalEdgeStyle;curved=1;rounded=0;orthogonalLoop=1;jettySize=auto;html=1;exitX=0.5;exitY=0;exitDx=0;exitDy=0;entryX=0.5;entryY=0;entryDx=0;entryDy=0;" edge="1" parent="1" source="ci0W5QpyFc1eqp9-e7Zw-14" target="ci0W5QpyFc1eqp9-e7Zw-4">
          <mxGeometry relative="1" as="geometry">
            <Array as="points">
              <mxPoint x="765" y="-10" />
              <mxPoint x="205" y="-10" />
            </Array>
          </mxGeometry>
        </mxCell>
        <mxCell id="6VXTqK_q7Z5x81dh3q4J-52" style="edgeStyle=orthogonalEdgeStyle;curved=1;rounded=0;orthogonalLoop=1;jettySize=auto;html=1;exitX=0.5;exitY=0;exitDx=0;exitDy=0;" edge="1" parent="1" source="ci0W5QpyFc1eqp9-e7Zw-14" target="ci0W5QpyFc1eqp9-e7Zw-7">
          <mxGeometry relative="1" as="geometry" />
        </mxCell>
        <mxCell id="ci0W5QpyFc1eqp9-e7Zw-14" value="7" style="ellipse;whiteSpace=wrap;html=1;aspect=fixed;fontSize=19;rounded=0;" vertex="1" parent="1">
          <mxGeometry x="750" y="70" width="30" height="30" as="geometry" />
        </mxCell>
        <mxCell id="ci0W5QpyFc1eqp9-e7Zw-15" value="Hank" style="ellipse;whiteSpace=wrap;html=1;aspect=fixed;fontSize=19;rounded=0;" vertex="1" parent="1">
          <mxGeometry x="35" y="330" width="91" height="91" as="geometry" />
        </mxCell>
        <mxCell id="6VXTqK_q7Z5x81dh3q4J-18" style="edgeStyle=orthogonalEdgeStyle;curved=1;rounded=0;orthogonalLoop=1;jettySize=auto;html=1;exitX=0.5;exitY=0;exitDx=0;exitDy=0;entryX=0.5;entryY=1;entryDx=0;entryDy=0;" edge="1" parent="1" source="ci0W5QpyFc1eqp9-e7Zw-16" target="ci0W5QpyFc1eqp9-e7Zw-5">
          <mxGeometry relative="1" as="geometry" />
        </mxCell>
        <mxCell id="6VXTqK_q7Z5x81dh3q4J-19" style="edgeStyle=orthogonalEdgeStyle;curved=1;rounded=0;orthogonalLoop=1;jettySize=auto;html=1;exitX=0.5;exitY=0;exitDx=0;exitDy=0;" edge="1" parent="1" source="ci0W5QpyFc1eqp9-e7Zw-16" target="ci0W5QpyFc1eqp9-e7Zw-9">
          <mxGeometry relative="1" as="geometry" />
        </mxCell>
        <mxCell id="6VXTqK_q7Z5x81dh3q4J-20" style="edgeStyle=orthogonalEdgeStyle;curved=1;rounded=0;orthogonalLoop=1;jettySize=auto;html=1;exitX=0.5;exitY=0;exitDx=0;exitDy=0;" edge="1" parent="1" source="ci0W5QpyFc1eqp9-e7Zw-16" target="ci0W5QpyFc1eqp9-e7Zw-11">
          <mxGeometry relative="1" as="geometry" />
        </mxCell>
        <mxCell id="6VXTqK_q7Z5x81dh3q4J-21" style="edgeStyle=orthogonalEdgeStyle;curved=1;rounded=0;orthogonalLoop=1;jettySize=auto;html=1;exitX=0.5;exitY=0;exitDx=0;exitDy=0;" edge="1" parent="1" source="ci0W5QpyFc1eqp9-e7Zw-16" target="ci0W5QpyFc1eqp9-e7Zw-13">
          <mxGeometry relative="1" as="geometry" />
        </mxCell>
        <mxCell id="ci0W5QpyFc1eqp9-e7Zw-16" value="8" style="ellipse;whiteSpace=wrap;html=1;aspect=fixed;fontSize=19;rounded=0;" vertex="1" parent="1">
          <mxGeometry x="65" y="330" width="31" height="31" as="geometry" />
        </mxCell>
        <mxCell id="6VXTqK_q7Z5x81dh3q4J-64" style="edgeStyle=orthogonalEdgeStyle;curved=1;rounded=0;orthogonalLoop=1;jettySize=auto;html=1;exitX=1;exitY=0;exitDx=0;exitDy=0;" edge="1" parent="1" source="ci0W5QpyFc1eqp9-e7Zw-17" target="ci0W5QpyFc1eqp9-e7Zw-13">
          <mxGeometry relative="1" as="geometry" />
        </mxCell>
        <mxCell id="6VXTqK_q7Z5x81dh3q4J-66" style="edgeStyle=orthogonalEdgeStyle;curved=1;rounded=0;orthogonalLoop=1;jettySize=auto;html=1;exitX=1;exitY=0;exitDx=0;exitDy=0;" edge="1" parent="1" source="ci0W5QpyFc1eqp9-e7Zw-17" target="ci0W5QpyFc1eqp9-e7Zw-9">
          <mxGeometry relative="1" as="geometry" />
        </mxCell>
        <mxCell id="6VXTqK_q7Z5x81dh3q4J-67" style="edgeStyle=orthogonalEdgeStyle;curved=1;rounded=0;orthogonalLoop=1;jettySize=auto;html=1;exitX=0;exitY=0;exitDx=0;exitDy=0;entryX=0.101;entryY=0.783;entryDx=0;entryDy=0;entryPerimeter=0;" edge="1" parent="1" source="ci0W5QpyFc1eqp9-e7Zw-17" target="ci0W5QpyFc1eqp9-e7Zw-3">
          <mxGeometry relative="1" as="geometry" />
        </mxCell>
        <mxCell id="ci0W5QpyFc1eqp9-e7Zw-17" value="Ivy" style="ellipse;whiteSpace=wrap;html=1;aspect=fixed;fontSize=19;rounded=0;" vertex="1" parent="1">
          <mxGeometry x="155" y="330" width="91" height="91" as="geometry" />
        </mxCell>
        <mxCell id="6VXTqK_q7Z5x81dh3q4J-65" style="edgeStyle=orthogonalEdgeStyle;curved=1;rounded=0;orthogonalLoop=1;jettySize=auto;html=1;exitX=0.5;exitY=0;exitDx=0;exitDy=0;" edge="1" parent="1" source="ci0W5QpyFc1eqp9-e7Zw-18" target="ci0W5QpyFc1eqp9-e7Zw-11">
          <mxGeometry relative="1" as="geometry">
            <mxPoint x="710" y="60" as="targetPoint" />
          </mxGeometry>
        </mxCell>
        <mxCell id="6VXTqK_q7Z5x81dh3q4J-68" style="edgeStyle=orthogonalEdgeStyle;curved=1;rounded=0;orthogonalLoop=1;jettySize=auto;html=1;exitX=1;exitY=0;exitDx=0;exitDy=0;" edge="1" parent="1" source="ci0W5QpyFc1eqp9-e7Zw-18" target="ci0W5QpyFc1eqp9-e7Zw-7">
          <mxGeometry relative="1" as="geometry" />
        </mxCell>
        <mxCell id="ci0W5QpyFc1eqp9-e7Zw-18" value="9" style="ellipse;whiteSpace=wrap;html=1;aspect=fixed;fontSize=19;rounded=0;" vertex="1" parent="1">
          <mxGeometry x="185" y="330" width="31" height="31" as="geometry" />
        </mxCell>
        <mxCell id="ci0W5QpyFc1eqp9-e7Zw-19" value="John" style="ellipse;whiteSpace=wrap;html=1;aspect=fixed;fontSize=19;rounded=0;" vertex="1" parent="1">
          <mxGeometry x="265" y="330" width="91" height="91" as="geometry" />
        </mxCell>
        <mxCell id="6VXTqK_q7Z5x81dh3q4J-5" style="edgeStyle=orthogonalEdgeStyle;curved=1;rounded=0;orthogonalLoop=1;jettySize=auto;html=1;exitX=0.5;exitY=0;exitDx=0;exitDy=0;entryX=0.5;entryY=1;entryDx=0;entryDy=0;" edge="1" parent="1" source="ci0W5QpyFc1eqp9-e7Zw-20" target="ci0W5QpyFc1eqp9-e7Zw-1">
          <mxGeometry relative="1" as="geometry" />
        </mxCell>
        <mxCell id="6VXTqK_q7Z5x81dh3q4J-6" style="edgeStyle=orthogonalEdgeStyle;curved=1;rounded=0;orthogonalLoop=1;jettySize=auto;html=1;exitX=0.5;exitY=0;exitDx=0;exitDy=0;entryX=0.5;entryY=1;entryDx=0;entryDy=0;" edge="1" parent="1" source="ci0W5QpyFc1eqp9-e7Zw-20" target="ci0W5QpyFc1eqp9-e7Zw-7">
          <mxGeometry relative="1" as="geometry" />
        </mxCell>
        <mxCell id="6VXTqK_q7Z5x81dh3q4J-7" style="edgeStyle=orthogonalEdgeStyle;curved=1;rounded=0;orthogonalLoop=1;jettySize=auto;html=1;exitX=0.5;exitY=0;exitDx=0;exitDy=0;entryX=0.5;entryY=1;entryDx=0;entryDy=0;" edge="1" parent="1" source="ci0W5QpyFc1eqp9-e7Zw-20" target="ci0W5QpyFc1eqp9-e7Zw-9">
          <mxGeometry relative="1" as="geometry" />
        </mxCell>
        <mxCell id="6VXTqK_q7Z5x81dh3q4J-8" style="edgeStyle=orthogonalEdgeStyle;curved=1;rounded=0;orthogonalLoop=1;jettySize=auto;html=1;exitX=0.5;exitY=0;exitDx=0;exitDy=0;entryX=0.5;entryY=1;entryDx=0;entryDy=0;" edge="1" parent="1" source="ci0W5QpyFc1eqp9-e7Zw-20" target="ci0W5QpyFc1eqp9-e7Zw-5">
          <mxGeometry relative="1" as="geometry" />
        </mxCell>
        <mxCell id="ci0W5QpyFc1eqp9-e7Zw-20" value="10" style="ellipse;whiteSpace=wrap;html=1;aspect=fixed;fontSize=19;rounded=0;" vertex="1" parent="1">
          <mxGeometry x="295" y="330" width="31" height="31" as="geometry" />
        </mxCell>
        <mxCell id="6VXTqK_q7Z5x81dh3q4J-1" style="edgeStyle=orthogonalEdgeStyle;curved=1;rounded=0;orthogonalLoop=1;jettySize=auto;html=1;exitX=0.5;exitY=0;exitDx=0;exitDy=0;" edge="1" parent="1" source="ci0W5QpyFc1eqp9-e7Zw-21" target="ci0W5QpyFc1eqp9-e7Zw-5">
          <mxGeometry relative="1" as="geometry" />
        </mxCell>
        <mxCell id="ci0W5QpyFc1eqp9-e7Zw-21" value="Jane" style="ellipse;whiteSpace=wrap;html=1;aspect=fixed;fontSize=19;rounded=0;" vertex="1" parent="1">
          <mxGeometry x="375" y="330" width="91" height="91" as="geometry" />
        </mxCell>
        <mxCell id="6VXTqK_q7Z5x81dh3q4J-2" style="edgeStyle=orthogonalEdgeStyle;curved=1;rounded=0;orthogonalLoop=1;jettySize=auto;html=1;exitX=0.5;exitY=0;exitDx=0;exitDy=0;" edge="1" parent="1" source="ci0W5QpyFc1eqp9-e7Zw-22" target="ci0W5QpyFc1eqp9-e7Zw-9">
          <mxGeometry relative="1" as="geometry" />
        </mxCell>
        <mxCell id="6VXTqK_q7Z5x81dh3q4J-3" style="edgeStyle=orthogonalEdgeStyle;curved=1;rounded=0;orthogonalLoop=1;jettySize=auto;html=1;exitX=0.5;exitY=0;exitDx=0;exitDy=0;" edge="1" parent="1" source="ci0W5QpyFc1eqp9-e7Zw-22" target="ci0W5QpyFc1eqp9-e7Zw-3">
          <mxGeometry relative="1" as="geometry" />
        </mxCell>
        <mxCell id="6VXTqK_q7Z5x81dh3q4J-4" style="edgeStyle=orthogonalEdgeStyle;curved=1;rounded=0;orthogonalLoop=1;jettySize=auto;html=1;exitX=0.5;exitY=0;exitDx=0;exitDy=0;entryX=0.5;entryY=1;entryDx=0;entryDy=0;" edge="1" parent="1" source="ci0W5QpyFc1eqp9-e7Zw-22" target="ci0W5QpyFc1eqp9-e7Zw-1">
          <mxGeometry relative="1" as="geometry" />
        </mxCell>
        <mxCell id="ci0W5QpyFc1eqp9-e7Zw-22" value="11" style="ellipse;whiteSpace=wrap;html=1;aspect=fixed;fontSize=19;rounded=0;" vertex="1" parent="1">
          <mxGeometry x="405" y="330" width="31" height="31" as="geometry" />
        </mxCell>
        <mxCell id="ci0W5QpyFc1eqp9-e7Zw-23" value="David" style="ellipse;whiteSpace=wrap;html=1;aspect=fixed;fontSize=19;rounded=0;" vertex="1" parent="1">
          <mxGeometry x="495" y="330" width="91" height="91" as="geometry" />
        </mxCell>
        <mxCell id="ci0W5QpyFc1eqp9-e7Zw-24" value="12" style="ellipse;whiteSpace=wrap;html=1;aspect=fixed;fontSize=19;rounded=0;" vertex="1" parent="1">
          <mxGeometry x="525" y="330" width="31" height="31" as="geometry" />
        </mxCell>
        <mxCell id="ci0W5QpyFc1eqp9-e7Zw-25" value="Emily" style="ellipse;whiteSpace=wrap;html=1;aspect=fixed;fontSize=19;rounded=0;" vertex="1" parent="1">
          <mxGeometry x="615" y="330" width="91" height="91" as="geometry" />
        </mxCell>
        <mxCell id="ci0W5QpyFc1eqp9-e7Zw-26" value="13" style="ellipse;whiteSpace=wrap;html=1;aspect=fixed;fontSize=19;rounded=0;" vertex="1" parent="1">
          <mxGeometry x="645" y="330" width="31" height="31" as="geometry" />
        </mxCell>
        <mxCell id="ci0W5QpyFc1eqp9-e7Zw-27" value="Mike" style="ellipse;whiteSpace=wrap;html=1;aspect=fixed;fontSize=19;rounded=0;" vertex="1" parent="1">
          <mxGeometry x="725" y="330" width="91" height="91" as="geometry" />
        </mxCell>
        <mxCell id="ci0W5QpyFc1eqp9-e7Zw-28" value="14" style="ellipse;whiteSpace=wrap;html=1;aspect=fixed;fontSize=19;rounded=0;" vertex="1" parent="1">
          <mxGeometry x="755" y="330" width="31" height="31" as="geometry" />
        </mxCell>
        <mxCell id="ci0W5QpyFc1eqp9-e7Zw-29" value="Jessica" style="ellipse;whiteSpace=wrap;html=1;aspect=fixed;fontSize=19;rounded=0;" vertex="1" parent="1">
          <mxGeometry x="30" y="460" width="90" height="90" as="geometry" />
        </mxCell>
        <mxCell id="ci0W5QpyFc1eqp9-e7Zw-30" value="15" style="ellipse;whiteSpace=wrap;html=1;aspect=fixed;fontSize=19;rounded=0;" vertex="1" parent="1">
          <mxGeometry x="60" y="460" width="30" height="30" as="geometry" />
        </mxCell>
        <mxCell id="ci0W5QpyFc1eqp9-e7Zw-31" value="Alex" style="ellipse;whiteSpace=wrap;html=1;aspect=fixed;fontSize=19;rounded=0;" vertex="1" parent="1">
          <mxGeometry x="150" y="460" width="90" height="90" as="geometry" />
        </mxCell>
        <mxCell id="ci0W5QpyFc1eqp9-e7Zw-32" value="16" style="ellipse;whiteSpace=wrap;html=1;aspect=fixed;fontSize=19;rounded=0;" vertex="1" parent="1">
          <mxGeometry x="180" y="460" width="30" height="30" as="geometry" />
        </mxCell>
        <mxCell id="ci0W5QpyFc1eqp9-e7Zw-33" value="Megan" style="ellipse;whiteSpace=wrap;html=1;aspect=fixed;fontSize=19;rounded=0;" vertex="1" parent="1">
          <mxGeometry x="260" y="460" width="90" height="90" as="geometry" />
        </mxCell>
        <mxCell id="ci0W5QpyFc1eqp9-e7Zw-34" value="17" style="ellipse;whiteSpace=wrap;html=1;aspect=fixed;fontSize=19;rounded=0;" vertex="1" parent="1">
          <mxGeometry x="290" y="460" width="30" height="30" as="geometry" />
        </mxCell>
        <mxCell id="ci0W5QpyFc1eqp9-e7Zw-35" value="Eric" style="ellipse;whiteSpace=wrap;html=1;aspect=fixed;fontSize=19;rounded=0;" vertex="1" parent="1">
          <mxGeometry x="370" y="460" width="90" height="90" as="geometry" />
        </mxCell>
        <mxCell id="ci0W5QpyFc1eqp9-e7Zw-36" value="18" style="ellipse;whiteSpace=wrap;html=1;aspect=fixed;fontSize=19;rounded=0;" vertex="1" parent="1">
          <mxGeometry x="400" y="460" width="30" height="30" as="geometry" />
        </mxCell>
        <mxCell id="ci0W5QpyFc1eqp9-e7Zw-37" value="Olivia" style="ellipse;whiteSpace=wrap;html=1;aspect=fixed;fontSize=19;rounded=0;" vertex="1" parent="1">
          <mxGeometry x="490" y="460" width="90" height="90" as="geometry" />
        </mxCell>
        <mxCell id="ci0W5QpyFc1eqp9-e7Zw-38" value="19" style="ellipse;whiteSpace=wrap;html=1;aspect=fixed;fontSize=19;rounded=0;" vertex="1" parent="1">
          <mxGeometry x="520" y="460" width="30" height="30" as="geometry" />
        </mxCell>
        <mxCell id="ci0W5QpyFc1eqp9-e7Zw-39" value="Jack" style="ellipse;whiteSpace=wrap;html=1;aspect=fixed;fontSize=19;rounded=0;" vertex="1" parent="1">
          <mxGeometry x="610" y="460" width="90" height="90" as="geometry" />
        </mxCell>
        <mxCell id="ci0W5QpyFc1eqp9-e7Zw-40" value="20" style="ellipse;whiteSpace=wrap;html=1;aspect=fixed;fontSize=19;rounded=0;" vertex="1" parent="1">
          <mxGeometry x="640" y="460" width="30" height="30" as="geometry" />
        </mxCell>
        <mxCell id="ci0W5QpyFc1eqp9-e7Zw-41" value="Isabella" style="ellipse;whiteSpace=wrap;html=1;aspect=fixed;fontSize=19;rounded=0;" vertex="1" parent="1">
          <mxGeometry x="720" y="460" width="90" height="90" as="geometry" />
        </mxCell>
        <mxCell id="ci0W5QpyFc1eqp9-e7Zw-42" value="21" style="ellipse;whiteSpace=wrap;html=1;aspect=fixed;fontSize=19;rounded=0;" vertex="1" parent="1">
          <mxGeometry x="750" y="460" width="30" height="30" as="geometry" />
        </mxCell>
      </root>
    </mxGraphModel>
  </diagram>
  <diagram id="fn3GZcZGtbRnlZRxzpeM" name="Universities">
    <mxGraphModel dx="1886" dy="823" grid="1" gridSize="10" guides="1" tooltips="1" connect="1" arrows="1" fold="1" page="1" pageScale="1" pageWidth="850" pageHeight="1100" math="0" shadow="0">
      <root>
        <mxCell id="0" />
        <mxCell id="1" parent="0" />
        <mxCell id="3dsutR-j_HezWNEO6jh5-1" value="BSU" style="shape=hexagon;perimeter=hexagonPerimeter2;whiteSpace=wrap;html=1;fixedSize=1;fontSize=19;" parent="1" vertex="1">
          <mxGeometry x="45" y="80" width="120" height="80" as="geometry" />
        </mxCell>
        <mxCell id="3dsutR-j_HezWNEO6jh5-2" value="1" style="shape=hexagon;perimeter=hexagonPerimeter2;whiteSpace=wrap;html=1;fixedSize=1;fontSize=19;" parent="1" vertex="1">
          <mxGeometry x="75.94" y="80" width="58.12" height="30" as="geometry" />
        </mxCell>
        <mxCell id="3dsutR-j_HezWNEO6jh5-3" value="BNTU" style="shape=hexagon;perimeter=hexagonPerimeter2;whiteSpace=wrap;html=1;fixedSize=1;fontSize=19;" parent="1" vertex="1">
          <mxGeometry x="205" y="80" width="120" height="80" as="geometry" />
        </mxCell>
        <mxCell id="3dsutR-j_HezWNEO6jh5-4" value="2" style="shape=hexagon;perimeter=hexagonPerimeter2;whiteSpace=wrap;html=1;fixedSize=1;fontSize=19;" parent="1" vertex="1">
          <mxGeometry x="235.94" y="80" width="58.12" height="30" as="geometry" />
        </mxCell>
        <mxCell id="3dsutR-j_HezWNEO6jh5-5" value="BSMU" style="shape=hexagon;perimeter=hexagonPerimeter2;whiteSpace=wrap;html=1;fixedSize=1;fontSize=19;" parent="1" vertex="1">
          <mxGeometry x="365" y="80" width="120" height="80" as="geometry" />
        </mxCell>
        <mxCell id="3dsutR-j_HezWNEO6jh5-6" value="3" style="shape=hexagon;perimeter=hexagonPerimeter2;whiteSpace=wrap;html=1;fixedSize=1;fontSize=19;" parent="1" vertex="1">
          <mxGeometry x="395.94" y="80" width="58.12" height="30" as="geometry" />
        </mxCell>
        <mxCell id="3dsutR-j_HezWNEO6jh5-7" value="BSUIR" style="shape=hexagon;perimeter=hexagonPerimeter2;whiteSpace=wrap;html=1;fixedSize=1;fontSize=19;" parent="1" vertex="1">
          <mxGeometry x="525" y="80" width="120" height="80" as="geometry" />
        </mxCell>
        <mxCell id="3dsutR-j_HezWNEO6jh5-8" value="4" style="shape=hexagon;perimeter=hexagonPerimeter2;whiteSpace=wrap;html=1;fixedSize=1;fontSize=19;" parent="1" vertex="1">
          <mxGeometry x="555.94" y="80" width="58.12" height="30" as="geometry" />
        </mxCell>
        <mxCell id="3dsutR-j_HezWNEO6jh5-9" value="BSUAA" style="shape=hexagon;perimeter=hexagonPerimeter2;whiteSpace=wrap;html=1;fixedSize=1;fontSize=19;" parent="1" vertex="1">
          <mxGeometry x="685" y="80" width="120" height="80" as="geometry" />
        </mxCell>
        <mxCell id="3dsutR-j_HezWNEO6jh5-10" value="5" style="shape=hexagon;perimeter=hexagonPerimeter2;whiteSpace=wrap;html=1;fixedSize=1;fontSize=19;" parent="1" vertex="1">
          <mxGeometry x="715.94" y="80" width="58.12" height="30" as="geometry" />
        </mxCell>
        <mxCell id="3dsutR-j_HezWNEO6jh5-11" value="VSU" style="shape=hexagon;perimeter=hexagonPerimeter2;whiteSpace=wrap;html=1;fixedSize=1;fontSize=19;" parent="1" vertex="1">
          <mxGeometry x="45" y="200" width="120" height="80" as="geometry" />
        </mxCell>
        <mxCell id="3dsutR-j_HezWNEO6jh5-12" value="6" style="shape=hexagon;perimeter=hexagonPerimeter2;whiteSpace=wrap;html=1;fixedSize=1;fontSize=19;" parent="1" vertex="1">
          <mxGeometry x="75.94" y="200" width="58.12" height="30" as="geometry" />
        </mxCell>
        <mxCell id="3dsutR-j_HezWNEO6jh5-13" value="BSTU" style="shape=hexagon;perimeter=hexagonPerimeter2;whiteSpace=wrap;html=1;fixedSize=1;fontSize=19;" parent="1" vertex="1">
          <mxGeometry x="205" y="200" width="120" height="80" as="geometry" />
        </mxCell>
        <mxCell id="3dsutR-j_HezWNEO6jh5-14" value="7" style="shape=hexagon;perimeter=hexagonPerimeter2;whiteSpace=wrap;html=1;fixedSize=1;fontSize=19;" parent="1" vertex="1">
          <mxGeometry x="235.94" y="200" width="58.12" height="30" as="geometry" />
        </mxCell>
        <mxCell id="3dsutR-j_HezWNEO6jh5-15" value="GSAU" style="shape=hexagon;perimeter=hexagonPerimeter2;whiteSpace=wrap;html=1;fixedSize=1;fontSize=19;" parent="1" vertex="1">
          <mxGeometry x="365" y="200" width="120" height="80" as="geometry" />
        </mxCell>
        <mxCell id="3dsutR-j_HezWNEO6jh5-16" value="8" style="shape=hexagon;perimeter=hexagonPerimeter2;whiteSpace=wrap;html=1;fixedSize=1;fontSize=19;" parent="1" vertex="1">
          <mxGeometry x="395.94" y="200" width="58.12" height="30" as="geometry" />
        </mxCell>
        <mxCell id="3dsutR-j_HezWNEO6jh5-17" value="GSMU" style="shape=hexagon;perimeter=hexagonPerimeter2;whiteSpace=wrap;html=1;fixedSize=1;fontSize=19;" parent="1" vertex="1">
          <mxGeometry x="525" y="200" width="120" height="80" as="geometry" />
        </mxCell>
        <mxCell id="3dsutR-j_HezWNEO6jh5-18" value="9" style="shape=hexagon;perimeter=hexagonPerimeter2;whiteSpace=wrap;html=1;fixedSize=1;fontSize=19;" parent="1" vertex="1">
          <mxGeometry x="555.94" y="200" width="58.12" height="30" as="geometry" />
        </mxCell>
        <mxCell id="3dsutR-j_HezWNEO6jh5-19" value="MSU" style="shape=hexagon;perimeter=hexagonPerimeter2;whiteSpace=wrap;html=1;fixedSize=1;fontSize=19;" parent="1" vertex="1">
          <mxGeometry x="685" y="200" width="120" height="80" as="geometry" />
        </mxCell>
        <mxCell id="3dsutR-j_HezWNEO6jh5-20" value="10" style="shape=hexagon;perimeter=hexagonPerimeter2;whiteSpace=wrap;html=1;fixedSize=1;fontSize=19;" parent="1" vertex="1">
          <mxGeometry x="715.94" y="200" width="58.12" height="30" as="geometry" />
        </mxCell>
      </root>
    </mxGraphModel>
  </diagram>
  <diagram name="Bands" id="6cAusIAV3j4MvlaCoFT2">
    <mxGraphModel dx="1886" dy="823" grid="1" gridSize="10" guides="1" tooltips="1" connect="1" arrows="1" fold="1" page="1" pageScale="1" pageWidth="827" pageHeight="1169" math="0" shadow="0">
      <root>
        <mxCell id="0" />
        <mxCell id="1" parent="0" />
        <mxCell id="d30o3VBvuoWE1zZmZLUP-1" value="The Beatles" style="rounded=0;whiteSpace=wrap;html=1;fontSize=19;" parent="1" vertex="1">
          <mxGeometry x="34" y="80" width="120" height="70" as="geometry" />
        </mxCell>
        <mxCell id="d30o3VBvuoWE1zZmZLUP-2" value="&lt;font style=&quot;font-size: 19px;&quot;&gt;1&lt;/font&gt;" style="rounded=0;whiteSpace=wrap;html=1;fontSize=19;" parent="1" vertex="1">
          <mxGeometry x="69" y="80" width="50" height="20" as="geometry" />
        </mxCell>
        <mxCell id="d30o3VBvuoWE1zZmZLUP-3" value="Led Zeppelin" style="rounded=0;whiteSpace=wrap;html=1;fontSize=19;" parent="1" vertex="1">
          <mxGeometry x="194" y="80" width="120" height="70" as="geometry" />
        </mxCell>
        <mxCell id="d30o3VBvuoWE1zZmZLUP-4" value="2" style="rounded=0;whiteSpace=wrap;html=1;fontSize=19;" parent="1" vertex="1">
          <mxGeometry x="229" y="80" width="50" height="20" as="geometry" />
        </mxCell>
        <mxCell id="d30o3VBvuoWE1zZmZLUP-5" value="Pink Floyd" style="rounded=0;whiteSpace=wrap;html=1;fontSize=19;" parent="1" vertex="1">
          <mxGeometry x="354" y="80" width="120" height="70" as="geometry" />
        </mxCell>
        <mxCell id="d30o3VBvuoWE1zZmZLUP-6" value="3" style="rounded=0;whiteSpace=wrap;html=1;fontSize=19;" parent="1" vertex="1">
          <mxGeometry x="389" y="80" width="50" height="20" as="geometry" />
        </mxCell>
        <mxCell id="d30o3VBvuoWE1zZmZLUP-7" value="Queen" style="rounded=0;whiteSpace=wrap;html=1;fontSize=19;" parent="1" vertex="1">
          <mxGeometry x="514" y="80" width="120" height="70" as="geometry" />
        </mxCell>
        <mxCell id="d30o3VBvuoWE1zZmZLUP-8" value="4" style="rounded=0;whiteSpace=wrap;html=1;fontSize=19;" parent="1" vertex="1">
          <mxGeometry x="549" y="80" width="50" height="20" as="geometry" />
        </mxCell>
        <mxCell id="d30o3VBvuoWE1zZmZLUP-9" value="The RS" style="rounded=0;whiteSpace=wrap;html=1;fontSize=19;" parent="1" vertex="1">
          <mxGeometry x="674" y="80" width="120" height="70" as="geometry" />
        </mxCell>
        <mxCell id="d30o3VBvuoWE1zZmZLUP-10" value="5" style="rounded=0;whiteSpace=wrap;html=1;fontSize=19;" parent="1" vertex="1">
          <mxGeometry x="709" y="80" width="50" height="20" as="geometry" />
        </mxCell>
        <mxCell id="d30o3VBvuoWE1zZmZLUP-11" value="AC/DC" style="rounded=0;whiteSpace=wrap;html=1;fontSize=19;" parent="1" vertex="1">
          <mxGeometry x="34" y="200" width="120" height="70" as="geometry" />
        </mxCell>
        <mxCell id="d30o3VBvuoWE1zZmZLUP-12" value="6" style="rounded=0;whiteSpace=wrap;html=1;fontSize=19;" parent="1" vertex="1">
          <mxGeometry x="69" y="200" width="50" height="20" as="geometry" />
        </mxCell>
        <mxCell id="d30o3VBvuoWE1zZmZLUP-13" value="Metallica" style="rounded=0;whiteSpace=wrap;html=1;fontSize=19;" parent="1" vertex="1">
          <mxGeometry x="194" y="200" width="120" height="70" as="geometry" />
        </mxCell>
        <mxCell id="d30o3VBvuoWE1zZmZLUP-14" value="7" style="rounded=0;whiteSpace=wrap;html=1;fontSize=19;" parent="1" vertex="1">
          <mxGeometry x="229" y="200" width="50" height="20" as="geometry" />
        </mxCell>
        <mxCell id="d30o3VBvuoWE1zZmZLUP-15" value="Nirvana" style="rounded=0;whiteSpace=wrap;html=1;fontSize=19;" parent="1" vertex="1">
          <mxGeometry x="354" y="200" width="120" height="70" as="geometry" />
        </mxCell>
        <mxCell id="d30o3VBvuoWE1zZmZLUP-16" value="8" style="rounded=0;whiteSpace=wrap;html=1;fontSize=19;" parent="1" vertex="1">
          <mxGeometry x="389" y="200" width="50" height="20" as="geometry" />
        </mxCell>
        <mxCell id="d30o3VBvuoWE1zZmZLUP-17" value="Radiohead" style="rounded=0;whiteSpace=wrap;html=1;fontSize=19;" parent="1" vertex="1">
          <mxGeometry x="514" y="200" width="120" height="70" as="geometry" />
        </mxCell>
        <mxCell id="d30o3VBvuoWE1zZmZLUP-18" value="9" style="rounded=0;whiteSpace=wrap;html=1;fontSize=19;" parent="1" vertex="1">
          <mxGeometry x="549" y="200" width="50" height="20" as="geometry" />
        </mxCell>
        <mxCell id="d30o3VBvuoWE1zZmZLUP-19" value="The Who" style="rounded=0;whiteSpace=wrap;html=1;fontSize=19;" parent="1" vertex="1">
          <mxGeometry x="674" y="200" width="120" height="70" as="geometry" />
        </mxCell>
        <mxCell id="d30o3VBvuoWE1zZmZLUP-20" value="10" style="rounded=0;whiteSpace=wrap;html=1;fontSize=19;" parent="1" vertex="1">
          <mxGeometry x="709" y="200" width="50" height="20" as="geometry" />
        </mxCell>
      </root>
    </mxGraphModel>
  </diagram>
  <diagram id="SgQcENoyzXMjQ3nEx50c" name="UsersBands">
    <mxGraphModel grid="1" page="1" gridSize="10" guides="1" tooltips="1" connect="1" arrows="1" fold="1" pageScale="1" pageWidth="850" pageHeight="1100" math="0" shadow="0">
      <root>
        <mxCell id="0" />
        <mxCell id="1" parent="0" />
        <mxCell id="I42PWsbcnYZzgZnHnVSj-1" value="The Beatles" style="rounded=0;whiteSpace=wrap;html=1;fontSize=19;" vertex="1" parent="1">
          <mxGeometry x="10" y="40" width="120" height="70" as="geometry" />
        </mxCell>
        <mxCell id="I42PWsbcnYZzgZnHnVSj-2" value="&lt;font style=&quot;font-size: 19px;&quot;&gt;1&lt;/font&gt;" style="rounded=0;whiteSpace=wrap;html=1;fontSize=19;" vertex="1" parent="1">
          <mxGeometry x="45" y="40" width="50" height="20" as="geometry" />
        </mxCell>
        <mxCell id="I42PWsbcnYZzgZnHnVSj-3" value="Led Zeppelin" style="rounded=0;whiteSpace=wrap;html=1;fontSize=19;" vertex="1" parent="1">
          <mxGeometry x="10" y="180" width="120" height="70" as="geometry" />
        </mxCell>
        <mxCell id="I42PWsbcnYZzgZnHnVSj-4" value="2" style="rounded=0;whiteSpace=wrap;html=1;fontSize=19;" vertex="1" parent="1">
          <mxGeometry x="45" y="180" width="50" height="20" as="geometry" />
        </mxCell>
        <mxCell id="I42PWsbcnYZzgZnHnVSj-5" value="Pink Floyd" style="rounded=0;whiteSpace=wrap;html=1;fontSize=19;" vertex="1" parent="1">
          <mxGeometry x="720" y="30" width="120" height="70" as="geometry" />
        </mxCell>
        <mxCell id="I42PWsbcnYZzgZnHnVSj-6" value="3" style="rounded=0;whiteSpace=wrap;html=1;fontSize=19;" vertex="1" parent="1">
          <mxGeometry x="755" y="30" width="50" height="20" as="geometry" />
        </mxCell>
        <mxCell id="I42PWsbcnYZzgZnHnVSj-7" value="Queen" style="rounded=0;whiteSpace=wrap;html=1;fontSize=19;" vertex="1" parent="1">
          <mxGeometry x="500" y="370" width="120" height="70" as="geometry" />
        </mxCell>
        <mxCell id="I42PWsbcnYZzgZnHnVSj-8" value="4" style="rounded=0;whiteSpace=wrap;html=1;fontSize=19;" vertex="1" parent="1">
          <mxGeometry x="535" y="370" width="50" height="20" as="geometry" />
        </mxCell>
        <mxCell id="I42PWsbcnYZzgZnHnVSj-9" value="The RS" style="rounded=0;whiteSpace=wrap;html=1;fontSize=19;" vertex="1" parent="1">
          <mxGeometry x="25" y="470" width="120" height="70" as="geometry" />
        </mxCell>
        <mxCell id="I42PWsbcnYZzgZnHnVSj-10" value="5" style="rounded=0;whiteSpace=wrap;html=1;fontSize=19;" vertex="1" parent="1">
          <mxGeometry x="60" y="470" width="50" height="20" as="geometry" />
        </mxCell>
        <mxCell id="I42PWsbcnYZzgZnHnVSj-11" value="AC/DC" style="rounded=0;whiteSpace=wrap;html=1;fontSize=19;" vertex="1" parent="1">
          <mxGeometry x="20" y="610" width="120" height="70" as="geometry" />
        </mxCell>
        <mxCell id="I42PWsbcnYZzgZnHnVSj-12" value="6" style="rounded=0;whiteSpace=wrap;html=1;fontSize=19;" vertex="1" parent="1">
          <mxGeometry x="55" y="610" width="50" height="20" as="geometry" />
        </mxCell>
        <mxCell id="I42PWsbcnYZzgZnHnVSj-13" value="Metallica" style="rounded=0;whiteSpace=wrap;html=1;fontSize=19;" vertex="1" parent="1">
          <mxGeometry x="690" y="585" width="120" height="70" as="geometry" />
        </mxCell>
        <mxCell id="I42PWsbcnYZzgZnHnVSj-14" value="7" style="rounded=0;whiteSpace=wrap;html=1;fontSize=19;" vertex="1" parent="1">
          <mxGeometry x="725" y="585" width="50" height="20" as="geometry" />
        </mxCell>
        <mxCell id="I42PWsbcnYZzgZnHnVSj-15" value="Nirvana" style="rounded=0;whiteSpace=wrap;html=1;fontSize=19;" vertex="1" parent="1">
          <mxGeometry x="20" y="760" width="120" height="70" as="geometry" />
        </mxCell>
        <mxCell id="I42PWsbcnYZzgZnHnVSj-16" value="8" style="rounded=0;whiteSpace=wrap;html=1;fontSize=19;" vertex="1" parent="1">
          <mxGeometry x="55" y="760" width="50" height="20" as="geometry" />
        </mxCell>
        <mxCell id="I42PWsbcnYZzgZnHnVSj-17" value="Radiohead" style="rounded=0;whiteSpace=wrap;html=1;fontSize=19;" vertex="1" parent="1">
          <mxGeometry x="255" y="970" width="120" height="70" as="geometry" />
        </mxCell>
        <mxCell id="I42PWsbcnYZzgZnHnVSj-18" value="9" style="rounded=0;whiteSpace=wrap;html=1;fontSize=19;" vertex="1" parent="1">
          <mxGeometry x="290" y="970" width="50" height="20" as="geometry" />
        </mxCell>
        <mxCell id="I42PWsbcnYZzgZnHnVSj-19" value="The Who" style="rounded=0;whiteSpace=wrap;html=1;fontSize=19;" vertex="1" parent="1">
          <mxGeometry x="640" y="950" width="120" height="70" as="geometry" />
        </mxCell>
        <mxCell id="I42PWsbcnYZzgZnHnVSj-20" value="10" style="rounded=0;whiteSpace=wrap;html=1;fontSize=19;" vertex="1" parent="1">
          <mxGeometry x="675" y="950" width="50" height="20" as="geometry" />
        </mxCell>
        <mxCell id="rNsHicPJEpXl45-0x7dn-4" style="edgeStyle=orthogonalEdgeStyle;curved=1;rounded=0;orthogonalLoop=1;jettySize=auto;html=1;exitX=0;exitY=0.5;exitDx=0;exitDy=0;entryX=1;entryY=0.5;entryDx=0;entryDy=0;" edge="1" parent="1" source="rNsHicPJEpXl45-0x7dn-1" target="I42PWsbcnYZzgZnHnVSj-1">
          <mxGeometry relative="1" as="geometry" />
        </mxCell>
        <mxCell id="rNsHicPJEpXl45-0x7dn-1" value="Eve" style="ellipse;whiteSpace=wrap;html=1;aspect=fixed;fontSize=19;rounded=0;" vertex="1" parent="1">
          <mxGeometry x="195" y="20" width="90" height="90" as="geometry" />
        </mxCell>
        <mxCell id="rNsHicPJEpXl45-0x7dn-2" value="5" style="ellipse;whiteSpace=wrap;html=1;aspect=fixed;fontSize=19;rounded=0;" vertex="1" parent="1">
          <mxGeometry x="225" y="20" width="30" height="30" as="geometry" />
        </mxCell>
        <mxCell id="u6JaoVR8wgaJ1ggESs8N-9" style="edgeStyle=orthogonalEdgeStyle;curved=1;rounded=0;orthogonalLoop=1;jettySize=auto;html=1;exitX=0;exitY=0.5;exitDx=0;exitDy=0;entryX=0.5;entryY=0;entryDx=0;entryDy=0;" edge="1" parent="1" source="u6JaoVR8wgaJ1ggESs8N-1" target="I42PWsbcnYZzgZnHnVSj-4">
          <mxGeometry relative="1" as="geometry" />
        </mxCell>
        <mxCell id="u6JaoVR8wgaJ1ggESs8N-1" value="Jessica" style="ellipse;whiteSpace=wrap;html=1;aspect=fixed;fontSize=19;rounded=0;" vertex="1" parent="1">
          <mxGeometry x="155" y="120" width="90" height="90" as="geometry" />
        </mxCell>
        <mxCell id="u6JaoVR8wgaJ1ggESs8N-2" value="15" style="ellipse;whiteSpace=wrap;html=1;aspect=fixed;fontSize=19;rounded=0;" vertex="1" parent="1">
          <mxGeometry x="185" y="120" width="30" height="30" as="geometry" />
        </mxCell>
        <mxCell id="u6JaoVR8wgaJ1ggESs8N-3" value="Jane" style="ellipse;whiteSpace=wrap;html=1;aspect=fixed;fontSize=19;rounded=0;" vertex="1" parent="1">
          <mxGeometry x="25" y="290" width="90" height="90" as="geometry" />
        </mxCell>
        <mxCell id="u6JaoVR8wgaJ1ggESs8N-10" style="edgeStyle=orthogonalEdgeStyle;curved=1;rounded=0;orthogonalLoop=1;jettySize=auto;html=1;exitX=0.5;exitY=0;exitDx=0;exitDy=0;entryX=0.5;entryY=1;entryDx=0;entryDy=0;" edge="1" parent="1" source="u6JaoVR8wgaJ1ggESs8N-4" target="I42PWsbcnYZzgZnHnVSj-3">
          <mxGeometry relative="1" as="geometry" />
        </mxCell>
        <mxCell id="u6JaoVR8wgaJ1ggESs8N-4" value="11" style="ellipse;whiteSpace=wrap;html=1;aspect=fixed;fontSize=19;rounded=0;" vertex="1" parent="1">
          <mxGeometry x="55" y="290" width="30" height="30" as="geometry" />
        </mxCell>
        <mxCell id="u6JaoVR8wgaJ1ggESs8N-11" style="edgeStyle=orthogonalEdgeStyle;curved=1;rounded=0;orthogonalLoop=1;jettySize=auto;html=1;exitX=0;exitY=0;exitDx=0;exitDy=0;entryX=1;entryY=1;entryDx=0;entryDy=0;" edge="1" parent="1" source="u6JaoVR8wgaJ1ggESs8N-5" target="I42PWsbcnYZzgZnHnVSj-3">
          <mxGeometry relative="1" as="geometry" />
        </mxCell>
        <mxCell id="u6JaoVR8wgaJ1ggESs8N-5" value="Mike" style="ellipse;whiteSpace=wrap;html=1;aspect=fixed;fontSize=19;rounded=0;" vertex="1" parent="1">
          <mxGeometry x="140" y="260" width="90" height="90" as="geometry" />
        </mxCell>
        <mxCell id="u6JaoVR8wgaJ1ggESs8N-6" value="14" style="ellipse;whiteSpace=wrap;html=1;aspect=fixed;fontSize=19;rounded=0;" vertex="1" parent="1">
          <mxGeometry x="170" y="260" width="30" height="30" as="geometry" />
        </mxCell>
        <mxCell id="u6JaoVR8wgaJ1ggESs8N-12" style="edgeStyle=orthogonalEdgeStyle;curved=1;rounded=0;orthogonalLoop=1;jettySize=auto;html=1;exitX=0;exitY=0.5;exitDx=0;exitDy=0;" edge="1" parent="1" source="u6JaoVR8wgaJ1ggESs8N-7" target="I42PWsbcnYZzgZnHnVSj-3">
          <mxGeometry relative="1" as="geometry" />
        </mxCell>
        <mxCell id="u6JaoVR8wgaJ1ggESs8N-7" value="Frank" style="ellipse;whiteSpace=wrap;html=1;aspect=fixed;fontSize=19;rounded=0;" vertex="1" parent="1">
          <mxGeometry x="240" y="190" width="90" height="90" as="geometry" />
        </mxCell>
        <mxCell id="u6JaoVR8wgaJ1ggESs8N-8" value="6" style="ellipse;whiteSpace=wrap;html=1;aspect=fixed;fontSize=19;rounded=0;" vertex="1" parent="1">
          <mxGeometry x="270" y="190" width="30" height="30" as="geometry" />
        </mxCell>
        <mxCell id="u6JaoVR8wgaJ1ggESs8N-18" style="edgeStyle=orthogonalEdgeStyle;curved=1;rounded=0;orthogonalLoop=1;jettySize=auto;html=1;exitX=1;exitY=0.5;exitDx=0;exitDy=0;entryX=0;entryY=0.5;entryDx=0;entryDy=0;" edge="1" parent="1" source="u6JaoVR8wgaJ1ggESs8N-13" target="I42PWsbcnYZzgZnHnVSj-5">
          <mxGeometry relative="1" as="geometry" />
        </mxCell>
        <mxCell id="u6JaoVR8wgaJ1ggESs8N-13" value="Isabella" style="ellipse;whiteSpace=wrap;html=1;aspect=fixed;fontSize=19;rounded=0;" vertex="1" parent="1">
          <mxGeometry x="550" y="5" width="90" height="90" as="geometry" />
        </mxCell>
        <mxCell id="u6JaoVR8wgaJ1ggESs8N-14" value="21" style="ellipse;whiteSpace=wrap;html=1;aspect=fixed;fontSize=19;rounded=0;" vertex="1" parent="1">
          <mxGeometry x="580" y="5" width="30" height="30" as="geometry" />
        </mxCell>
        <mxCell id="u6JaoVR8wgaJ1ggESs8N-17" style="edgeStyle=orthogonalEdgeStyle;curved=1;rounded=0;orthogonalLoop=1;jettySize=auto;html=1;exitX=1;exitY=0.5;exitDx=0;exitDy=0;entryX=0.5;entryY=1;entryDx=0;entryDy=0;" edge="1" parent="1" source="u6JaoVR8wgaJ1ggESs8N-15" target="I42PWsbcnYZzgZnHnVSj-5">
          <mxGeometry relative="1" as="geometry" />
        </mxCell>
        <mxCell id="u6JaoVR8wgaJ1ggESs8N-15" value="Alex" style="ellipse;whiteSpace=wrap;html=1;aspect=fixed;fontSize=19;rounded=0;" vertex="1" parent="1">
          <mxGeometry x="580" y="100" width="90" height="90" as="geometry" />
        </mxCell>
        <mxCell id="u6JaoVR8wgaJ1ggESs8N-16" value="16" style="ellipse;whiteSpace=wrap;html=1;aspect=fixed;fontSize=19;rounded=0;" vertex="1" parent="1">
          <mxGeometry x="610" y="100" width="30" height="30" as="geometry" />
        </mxCell>
        <mxCell id="N-XhDyY21yU_tahoNjD2-32" style="edgeStyle=orthogonalEdgeStyle;curved=1;rounded=0;orthogonalLoop=1;jettySize=auto;html=1;exitX=0.5;exitY=1;exitDx=0;exitDy=0;entryX=-0.036;entryY=-0.014;entryDx=0;entryDy=0;entryPerimeter=0;" edge="1" parent="1" source="N-XhDyY21yU_tahoNjD2-1" target="I42PWsbcnYZzgZnHnVSj-7">
          <mxGeometry relative="1" as="geometry" />
        </mxCell>
        <mxCell id="N-XhDyY21yU_tahoNjD2-1" value="Jack" style="ellipse;whiteSpace=wrap;html=1;aspect=fixed;fontSize=19;rounded=0;" vertex="1" parent="1">
          <mxGeometry x="440" y="260" width="90" height="90" as="geometry" />
        </mxCell>
        <mxCell id="N-XhDyY21yU_tahoNjD2-2" value="20" style="ellipse;whiteSpace=wrap;html=1;aspect=fixed;fontSize=19;rounded=0;" vertex="1" parent="1">
          <mxGeometry x="470" y="260" width="30" height="30" as="geometry" />
        </mxCell>
        <mxCell id="N-XhDyY21yU_tahoNjD2-33" style="edgeStyle=orthogonalEdgeStyle;curved=1;rounded=0;orthogonalLoop=1;jettySize=auto;html=1;exitX=0.5;exitY=1;exitDx=0;exitDy=0;entryX=0.5;entryY=0;entryDx=0;entryDy=0;" edge="1" parent="1" source="N-XhDyY21yU_tahoNjD2-18" target="I42PWsbcnYZzgZnHnVSj-8">
          <mxGeometry relative="1" as="geometry" />
        </mxCell>
        <mxCell id="N-XhDyY21yU_tahoNjD2-18" value="David" style="ellipse;whiteSpace=wrap;html=1;aspect=fixed;fontSize=19;rounded=0;" vertex="1" parent="1">
          <mxGeometry x="540" y="250" width="90" height="90" as="geometry" />
        </mxCell>
        <mxCell id="N-XhDyY21yU_tahoNjD2-19" value="12" style="ellipse;whiteSpace=wrap;html=1;aspect=fixed;fontSize=19;rounded=0;" vertex="1" parent="1">
          <mxGeometry x="570" y="250" width="30" height="30" as="geometry" />
        </mxCell>
        <mxCell id="N-XhDyY21yU_tahoNjD2-34" style="edgeStyle=orthogonalEdgeStyle;curved=1;rounded=0;orthogonalLoop=1;jettySize=auto;html=1;exitX=0;exitY=1;exitDx=0;exitDy=0;entryX=1.031;entryY=-0.052;entryDx=0;entryDy=0;entryPerimeter=0;" edge="1" parent="1" source="N-XhDyY21yU_tahoNjD2-20" target="I42PWsbcnYZzgZnHnVSj-7">
          <mxGeometry relative="1" as="geometry" />
        </mxCell>
        <mxCell id="N-XhDyY21yU_tahoNjD2-20" value="Olivia" style="ellipse;whiteSpace=wrap;html=1;aspect=fixed;fontSize=19;rounded=0;" vertex="1" parent="1">
          <mxGeometry x="650" y="270" width="90" height="90" as="geometry" />
        </mxCell>
        <mxCell id="N-XhDyY21yU_tahoNjD2-21" value="19" style="ellipse;whiteSpace=wrap;html=1;aspect=fixed;fontSize=19;rounded=0;" vertex="1" parent="1">
          <mxGeometry x="680" y="270" width="30" height="30" as="geometry" />
        </mxCell>
        <mxCell id="N-XhDyY21yU_tahoNjD2-35" style="edgeStyle=orthogonalEdgeStyle;curved=1;rounded=0;orthogonalLoop=1;jettySize=auto;html=1;exitX=0;exitY=0.5;exitDx=0;exitDy=0;entryX=1;entryY=0.5;entryDx=0;entryDy=0;" edge="1" parent="1" source="N-XhDyY21yU_tahoNjD2-22" target="I42PWsbcnYZzgZnHnVSj-7">
          <mxGeometry relative="1" as="geometry" />
        </mxCell>
        <mxCell id="N-XhDyY21yU_tahoNjD2-22" value="Emily" style="ellipse;whiteSpace=wrap;html=1;aspect=fixed;fontSize=19;rounded=0;" vertex="1" parent="1">
          <mxGeometry x="655" y="370" width="90" height="90" as="geometry" />
        </mxCell>
        <mxCell id="N-XhDyY21yU_tahoNjD2-23" value="13" style="ellipse;whiteSpace=wrap;html=1;aspect=fixed;fontSize=19;rounded=0;" vertex="1" parent="1">
          <mxGeometry x="685" y="370" width="30" height="30" as="geometry" />
        </mxCell>
        <mxCell id="N-XhDyY21yU_tahoNjD2-37" style="edgeStyle=orthogonalEdgeStyle;curved=1;rounded=0;orthogonalLoop=1;jettySize=auto;html=1;exitX=0;exitY=0;exitDx=0;exitDy=0;entryX=0.664;entryY=1.024;entryDx=0;entryDy=0;entryPerimeter=0;" edge="1" parent="1" source="N-XhDyY21yU_tahoNjD2-24" target="I42PWsbcnYZzgZnHnVSj-7">
          <mxGeometry relative="1" as="geometry" />
        </mxCell>
        <mxCell id="N-XhDyY21yU_tahoNjD2-24" value="Megan" style="ellipse;whiteSpace=wrap;html=1;aspect=fixed;fontSize=19;rounded=0;" vertex="1" parent="1">
          <mxGeometry x="590" y="450" width="90" height="90" as="geometry" />
        </mxCell>
        <mxCell id="N-XhDyY21yU_tahoNjD2-25" value="17" style="ellipse;whiteSpace=wrap;html=1;aspect=fixed;fontSize=19;rounded=0;" vertex="1" parent="1">
          <mxGeometry x="620" y="450" width="30" height="30" as="geometry" />
        </mxCell>
        <mxCell id="N-XhDyY21yU_tahoNjD2-38" style="edgeStyle=orthogonalEdgeStyle;curved=1;rounded=0;orthogonalLoop=1;jettySize=auto;html=1;exitX=0.5;exitY=0;exitDx=0;exitDy=0;entryX=0.342;entryY=1.024;entryDx=0;entryDy=0;entryPerimeter=0;" edge="1" parent="1" source="N-XhDyY21yU_tahoNjD2-26" target="I42PWsbcnYZzgZnHnVSj-7">
          <mxGeometry relative="1" as="geometry" />
        </mxCell>
        <mxCell id="N-XhDyY21yU_tahoNjD2-26" value="Grace" style="ellipse;whiteSpace=wrap;html=1;aspect=fixed;fontSize=19;rounded=0;" vertex="1" parent="1">
          <mxGeometry x="480" y="460" width="90" height="90" as="geometry" />
        </mxCell>
        <mxCell id="N-XhDyY21yU_tahoNjD2-27" value="7" style="ellipse;whiteSpace=wrap;html=1;aspect=fixed;fontSize=19;rounded=0;" vertex="1" parent="1">
          <mxGeometry x="510" y="460" width="30" height="30" as="geometry" />
        </mxCell>
        <mxCell id="N-XhDyY21yU_tahoNjD2-31" style="edgeStyle=orthogonalEdgeStyle;curved=1;rounded=0;orthogonalLoop=1;jettySize=auto;html=1;exitX=1;exitY=1;exitDx=0;exitDy=0;entryX=0;entryY=1;entryDx=0;entryDy=0;" edge="1" parent="1" source="N-XhDyY21yU_tahoNjD2-28" target="I42PWsbcnYZzgZnHnVSj-7">
          <mxGeometry relative="1" as="geometry" />
        </mxCell>
        <mxCell id="N-XhDyY21yU_tahoNjD2-28" value="Eric" style="ellipse;whiteSpace=wrap;html=1;aspect=fixed;fontSize=19;rounded=0;" vertex="1" parent="1">
          <mxGeometry x="390" y="380" width="90" height="90" as="geometry" />
        </mxCell>
        <mxCell id="N-XhDyY21yU_tahoNjD2-29" value="18" style="ellipse;whiteSpace=wrap;html=1;aspect=fixed;fontSize=19;rounded=0;" vertex="1" parent="1">
          <mxGeometry x="420" y="380" width="30" height="30" as="geometry" />
        </mxCell>
        <mxCell id="uM9etns6i6ZVykB3WqiE-3" style="edgeStyle=orthogonalEdgeStyle;curved=1;rounded=0;orthogonalLoop=1;jettySize=auto;html=1;exitX=0;exitY=0.5;exitDx=0;exitDy=0;entryX=1;entryY=0;entryDx=0;entryDy=0;" edge="1" parent="1" source="uM9etns6i6ZVykB3WqiE-1" target="I42PWsbcnYZzgZnHnVSj-9">
          <mxGeometry relative="1" as="geometry" />
        </mxCell>
        <mxCell id="uM9etns6i6ZVykB3WqiE-1" value="&lt;font style=&quot;font-size: 19px;&quot;&gt;Alice&lt;/font&gt;" style="ellipse;whiteSpace=wrap;html=1;aspect=fixed;fontSize=19;rounded=0;" vertex="1" parent="1">
          <mxGeometry x="180" y="390" width="90" height="90" as="geometry" />
        </mxCell>
        <mxCell id="uM9etns6i6ZVykB3WqiE-2" value="&lt;font style=&quot;font-size: 19px;&quot;&gt;1&lt;/font&gt;" style="ellipse;whiteSpace=wrap;html=1;aspect=fixed;fontSize=19;rounded=0;" vertex="1" parent="1">
          <mxGeometry x="210" y="390" width="30" height="30" as="geometry" />
        </mxCell>
        <mxCell id="xi8TW-uynQZlfLwoBkDg-3" style="edgeStyle=orthogonalEdgeStyle;curved=1;rounded=0;orthogonalLoop=1;jettySize=auto;html=1;exitX=1;exitY=0.5;exitDx=0;exitDy=0;entryX=0;entryY=0.5;entryDx=0;entryDy=0;" edge="1" parent="1" source="xi8TW-uynQZlfLwoBkDg-1" target="I42PWsbcnYZzgZnHnVSj-13">
          <mxGeometry relative="1" as="geometry" />
        </mxCell>
        <mxCell id="xi8TW-uynQZlfLwoBkDg-1" value="Ivy" style="ellipse;whiteSpace=wrap;html=1;aspect=fixed;fontSize=19;rounded=0;" vertex="1" parent="1">
          <mxGeometry x="570" y="589" width="91" height="91" as="geometry" />
        </mxCell>
        <mxCell id="xi8TW-uynQZlfLwoBkDg-2" value="9" style="ellipse;whiteSpace=wrap;html=1;aspect=fixed;fontSize=19;rounded=0;" vertex="1" parent="1">
          <mxGeometry x="600" y="589" width="31" height="31" as="geometry" />
        </mxCell>
        <mxCell id="GiV3GAS6mp_UoX7uUKhi-4" style="edgeStyle=orthogonalEdgeStyle;curved=1;rounded=0;orthogonalLoop=1;jettySize=auto;html=1;exitX=0.5;exitY=1;exitDx=0;exitDy=0;entryX=0.75;entryY=0;entryDx=0;entryDy=0;" edge="1" parent="1" source="VGfVq39kuviEV0i60fXm-1" target="I42PWsbcnYZzgZnHnVSj-17">
          <mxGeometry relative="1" as="geometry" />
        </mxCell>
        <mxCell id="VGfVq39kuviEV0i60fXm-1" value="Dave" style="ellipse;whiteSpace=wrap;html=1;aspect=fixed;fontSize=19;rounded=0;" vertex="1" parent="1">
          <mxGeometry x="310" y="850" width="90" height="90" as="geometry" />
        </mxCell>
        <mxCell id="VGfVq39kuviEV0i60fXm-2" value="4" style="ellipse;whiteSpace=wrap;html=1;aspect=fixed;fontSize=19;rounded=0;" vertex="1" parent="1">
          <mxGeometry x="340" y="850" width="30" height="30" as="geometry" />
        </mxCell>
        <mxCell id="GiV3GAS6mp_UoX7uUKhi-3" style="edgeStyle=orthogonalEdgeStyle;curved=1;rounded=0;orthogonalLoop=1;jettySize=auto;html=1;exitX=0.5;exitY=1;exitDx=0;exitDy=0;entryX=0.072;entryY=0.005;entryDx=0;entryDy=0;entryPerimeter=0;" edge="1" parent="1" source="GiV3GAS6mp_UoX7uUKhi-1" target="I42PWsbcnYZzgZnHnVSj-17">
          <mxGeometry relative="1" as="geometry" />
        </mxCell>
        <mxCell id="GiV3GAS6mp_UoX7uUKhi-1" value="Hank" style="ellipse;whiteSpace=wrap;html=1;aspect=fixed;fontSize=19;rounded=0;" vertex="1" parent="1">
          <mxGeometry x="185" y="849" width="91" height="91" as="geometry" />
        </mxCell>
        <mxCell id="GiV3GAS6mp_UoX7uUKhi-2" value="8" style="ellipse;whiteSpace=wrap;html=1;aspect=fixed;fontSize=19;rounded=0;" vertex="1" parent="1">
          <mxGeometry x="215" y="849" width="31" height="31" as="geometry" />
        </mxCell>
        <mxCell id="mCn-UDRyVXc4YEJxkZJC-3" value="" style="edgeStyle=orthogonalEdgeStyle;curved=1;rounded=0;orthogonalLoop=1;jettySize=auto;html=1;" edge="1" parent="1" source="mCn-UDRyVXc4YEJxkZJC-1" target="I42PWsbcnYZzgZnHnVSj-20">
          <mxGeometry relative="1" as="geometry" />
        </mxCell>
        <mxCell id="mCn-UDRyVXc4YEJxkZJC-1" value="Bob" style="ellipse;whiteSpace=wrap;html=1;aspect=fixed;fontSize=19;rounded=0;" vertex="1" parent="1">
          <mxGeometry x="635" y="810" width="90" height="90" as="geometry" />
        </mxCell>
        <mxCell id="mCn-UDRyVXc4YEJxkZJC-2" value="2" style="ellipse;whiteSpace=wrap;html=1;aspect=fixed;fontSize=19;rounded=0;" vertex="1" parent="1">
          <mxGeometry x="665" y="810" width="30" height="30" as="geometry" />
        </mxCell>
      </root>
    </mxGraphModel>
  </diagram>
</mxfile>
